# xmcd
#
# Track frame offsets: 
#        150
#        15198
#        30621
#        46056
#        56690
#        70604
#        84818
#        99488
#        115437
#        128329
#        145470
#
# Disc length: 2140 seconds
#
# Revision: 3
# Processed by: cddbd v1.5.2PL0 Copyright (c) Steve Scherf et al.
# Submitted via: ExactAudioCopyFreeDBPlugin 1.0
#
DISCID=7f085a0b
DTITLE=Money Mark - Brand New By Tomorrow
DYEAR=2007
DGENRE=Pop
TTITLE0=Color Of Your Blues
TTITLE1=Pick Up The Pieces
TTITLE2=Summer Blue
TTITLE3=Pretend To Sleep
TTITLE4=My Loss, Your Gain
TTITLE5=Everyday I Die A Little
TTITLE6=Radiate Nothing
TTITLE7=Black Butterfly
TTITLE8=Nice To Me
TTITLE9=Eyes That Ring
TTITLE10=Brand New By Tomorrow
EXTD=
EXTT0=
EXTT1=
EXTT2=
EXTT3=
EXTT4=
EXTT5=
EXTT6=
EXTT7=
EXTT8=
EXTT9=
EXTT10=
PLAYORDER=
